<?xml version="1.0" encoding="UTF-8" standalone="no"?>
<svg xmlns="http://www.w3.org/2000/svg"
  xmlns:xlink="http://www.w3.org/1999/xlink"
  width="64" height="64"
  viewBox="0 0 64 64"
  version="1.1">
  <defs>
    <linearGradient id="bg" x1="65" y1="65" x2="-11" y2="-11" gradientUnits="userSpaceOnUse">
      <stop offset=".35" stop-color="#099" />
      <stop offset=".63" stop-color="#5cc" />
      <stop offset="1" stop-color="#46e" />
    </linearGradient>
    <linearGradient gradientUnits="userSpaceOnUse" y2="42" x2="12" y1="18" x1="52" id="fg">
      <stop stop-color="#eee" stop-opacity=".3" offset=".1" />
      <stop stop-color="#eee" stop-opacity=".63" offset=".9" />
    </linearGradient>
    <linearGradient id="as" x1="17" y1="17" x2="50" y2="35" gradientUnits="userSpaceOnUse">
      <stop stop-color="#000" offset="0"/>
      <stop stop-color="#000" offset=".3"/>
      <stop stop-color="#2cae6d" offset="1"/>
    </linearGradient>
    <path id="squircle" d="M17.4,64.4c-8,0 -12,-4 -12,-12v-35c0,-8 4,-12 12,-12h35c8,0 12,4 12,12v35c0,8 -4,12 -12,12z" />
  </defs>
  <use xlink:href="#squircle" fill="url(#bg)" transform="scale(.915)" />-->
  <use xlink:href="#squircle" fill="url(#fg)" transform="scale(.7)translate(11 11)" />

  <!--
  1, 2: letters MX from Fira Code: https://github.com/tonsky/FiraCode
  3: JB-like line
  -->
  <path fill="url(#as)"
     d="M29,32h-2.4l-0.4,-7.4q0,-1.5 0,-3 0,-1.7 0,-2.8l-2.2,10.3h-2.2l-2.4,-10.3q0,1 0,3.5 0,1.4 0,2l-0.3,7.3h-2.3l0.9,-15h3l2.2,10.2 2.1,-10.2h3ZM33.3,16.8l2.9,5.5 3,-5.5h2.7l-4.2,7 4.7,8.2h-2.8l-3.4,-6.5 -3.4,6.4h-2.7l4.6,-8.1 -4.2,-7.1ZM17,44h15v3h-14c-1,0 -1,-1 -1,-1z" />
</svg>
